<svg viewBox="0.00 0.00 287.00 80.00" fill="none" xmlns="http://www.w3.org/2000/svg">
<rect width="287" height="80" fill="#F5F5F5"/>
<g id="Services">
<path d="M-50967 -8251C-50967 -8252.1 -50966.1 -8253 -50965 -8253H4455C4456.11 -8253 4457 -8252.1 4457 -8251V14062C4457 14063.1 4456.11 14064 4455 14064H-50965C-50966.1 14064 -50967 14063.1 -50967 14062V-8251Z" fill="white"/>
<path d="M-50965 -8253V-8252H4455V-8253V-8254H-50965V-8253ZM4457 -8251H4456V14062H4457H4458V-8251H4457ZM4455 14064V14063H-50965V14064V14065H4455V14064ZM-50967 14062H-50966V-8251H-50967H-50968V14062H-50967ZM-50965 14064V14063C-50965.6 14063 -50966 14062.6 -50966 14062H-50967H-50968C-50968 14063.7 -50966.7 14065 -50965 14065V14064ZM4457 14062H4456C4456 14062.6 4455.55 14063 4455 14063V14064V14065C4456.66 14065 4458 14063.7 4458 14062H4457ZM4455 -8253V-8252C4455.55 -8252 4456 -8251.55 4456 -8251H4457H4458C4458 -8252.66 4456.66 -8254 4455 -8254V-8253ZM-50965 -8253V-8254C-50966.7 -8254 -50968 -8252.66 -50968 -8251H-50967H-50966C-50966 -8251.55 -50965.6 -8252 -50965 -8252V-8253Z" fill="white" fill-opacity="0.1"/>
<g id="ZK Development">
<g id="service">
<rect width="1920" height="1266" transform="translate(-1000 -406)" fill="black"/>
<g id="steps">
<g id="step">
<rect x="-40" y="-196" width="450" height="498" stroke="#565653"/>
<g id="Group 970">
<path id="Vector" d="M0 4.92783C5.69164 4.92783 11.3833 4.92783 17.2474 4.92783C17.2474 14.0345 17.2474 23.1411 17.2474 32.5237C26.6793 32.5237 36.1111 32.5237 45.8288 32.5237C45.8288 23.417 45.8288 14.3104 45.8288 4.92783C51.6831 4.92783 57.5373 4.92783 63.569 4.92783C63.569 28.9953 63.569 53.0629 63.569 77.8597C57.7147 77.8597 51.8605 77.8597 45.8288 77.8597C45.8288 67.7773 45.8288 57.695 45.8288 47.3072C36.3969 47.3072 26.9651 47.3072 17.2474 47.3072C17.2474 57.3895 17.2474 67.4718 17.2474 77.8597C11.5558 77.8597 5.86412 77.8597 0 77.8597C0 53.7922 0 29.7247 0 4.92783Z" fill="white"/>
<path id="Vector_2" d="M270.045 4.43494C270.67 4.64076 270.67 4.64076 271.308 4.85073C276.448 6.66867 281.007 10.3462 283.601 15.1838C286.292 20.966 286.849 27.0732 284.829 33.2011C281.692 40.8167 275.199 46.6971 269.004 51.9384C267.851 52.9172 266.732 53.9305 265.61 54.9452C262.706 57.5642 259.795 60.1396 256.74 62.5833C271.132 62.8272 271.132 62.8272 285.814 63.0761C285.814 67.9546 285.814 72.8332 285.814 77.8596C268.414 77.8596 251.014 77.8596 233.086 77.8596C233.086 72.981 233.086 68.1025 233.086 63.0761C238.014 58.6411 238.014 58.6411 240.417 56.4851C242.254 54.8324 244.079 53.1673 245.899 51.4957C248.511 49.0962 251.143 46.719 253.783 44.3504C255.013 43.2437 256.243 42.1366 257.47 41.026C258.314 40.2704 259.168 39.5251 260.03 38.7892C263.656 35.6571 266.551 32.4654 267.231 27.5515C267.399 24.9656 266.924 23.1736 265.416 21.0567C263.411 18.8954 261.121 18.1296 258.218 17.9557C255.197 18.0949 253.136 19.3076 251.073 21.4725C249.395 23.6148 248.595 25.9827 247.87 28.5813C244.224 28.3404 240.596 28.0152 236.967 27.5957C236.605 27.5548 236.244 27.5139 235.871 27.4718C234.379 27.2949 233.038 27.0866 231.608 26.6102C231.094 20.8286 234.37 15.7657 237.776 11.3512C245.368 2.89559 259.682 0.480633 270.045 4.43494Z" fill="white"/>
<path id="Vector_3" d="M135.516 0C141.045 0 146.574 0 152.27 0C152.27 25.6937 152.27 51.3874 152.27 77.8597C146.741 77.8597 141.212 77.8597 135.516 77.8597C135.516 52.166 135.516 26.4723 135.516 0Z" fill="white"/>
<path id="Subtract" d="M177.858 28.0172C188.314 22.2494 202.005 24.4077 211.405 31.1148C215.931 34.951 218.578 39.705 220.275 45.3355C220.371 45.636 220.468 45.9371 220.566 46.2467C222.004 53.7932 220.297 61.552 216.334 68.0035C211.725 74.2596 205.527 77.8422 197.978 79.4918C191.863 80.4098 186.136 80.2072 180.36 77.8599C179.926 77.6872 179.492 77.5135 179.044 77.3355C175.656 75.8205 173.114 73.5654 170.505 70.9605C170.069 70.5337 170.069 70.5337 169.625 70.0982C167.435 67.7681 166.279 65.0259 165.084 62.0904C164.909 61.7005 164.733 61.3105 164.553 60.9088C162.401 54.8372 162.905 46.6672 165.577 40.901C165.75 40.5147 165.923 40.128 166.101 39.7301C168.499 34.9333 172.286 31.2188 176.911 28.5816C177.224 28.3955 177.536 28.2089 177.858 28.0172ZM198.429 40.5992C193.332 37.7546 188.42 38.377 183.808 41.8863C181.448 44.246 180.074 47.3956 179.707 50.6988C179.619 55.3015 180.977 58.9008 183.931 62.4293C187.099 65.0932 189.6 65.7599 193.745 65.7056C196.914 65.3298 199.606 63.7643 201.609 61.2896C203.828 57.2965 205.06 53.8992 204.504 49.2779C203.766 45.5812 201.494 42.7236 198.429 40.5992Z" fill="white"/>
<path id="Subtract_2" d="M100.965 24.9971C107.145 25.0145 113.252 26.6041 117.779 31.0449C121.587 35.9689 123.267 42.1022 123.256 48.2549C123.256 48.582 123.257 48.9091 123.257 49.2461C123.256 50.3179 123.252 51.3901 123.248 52.4619C123.247 53.209 123.247 53.9561 123.246 54.7031C123.244 56.662 123.24 58.6212 123.234 60.5801C123.228 62.9342 123.226 65.2884 123.223 67.6426C123.218 71.2125 123.209 74.7826 123.2 78.3525H107.432C107.269 76.7264 107.106 75.1002 106.938 73.4248C106.603 73.9582 106.603 73.9586 106.261 74.5029C103.291 77.6851 98.877 79.1701 94.6016 79.4287C88.4057 79.5519 82.6727 78.6088 77.9258 74.3174C74.883 70.9363 74.2398 67.4391 74.168 63.0146C74.1588 62.6441 74.1501 62.2734 74.1406 61.8916C74.1782 58.5594 75.2162 56.0707 77.375 53.5381C81.9157 49.6089 86.2907 47.9355 92.1553 46.8145C92.6208 46.7128 93.0868 46.6106 93.5664 46.5059C98.0085 45.6212 102.432 45.739 106.938 45.8291C106.785 45.1205 106.631 44.4113 106.477 43.7031C106.348 43.1118 106.348 43.1113 106.217 42.5078C105.954 41.3219 105.953 41.3216 105.46 39.915C104.289 39.3317 104.289 39.3318 102.996 38.9297C102.508 38.7671 102.02 38.6041 101.518 38.4365C95.2181 37.9656 90.2614 38.8677 85.2559 42.8721C82.8106 40.9636 80.8393 38.8396 78.8496 36.4658C78.5969 36.1655 78.3443 35.8651 78.084 35.5557C77.5152 34.876 76.9498 34.1924 76.3857 33.5088C83.3604 27.7604 90.4652 24.9327 99.5771 25.0088C100.035 25.005 100.493 25.001 100.965 24.9971ZM107.425 55.6846C102.377 55.5718 96.382 54.8826 92.1484 58.1484C90.4086 59.5403 89.7441 60.1259 89.4688 62.3682C89.6711 63.9585 89.6881 64.7953 90.6699 66.0332C93.1874 67.9614 95.1248 68.2643 98.2715 68.127C101.577 67.806 103.735 66.4796 105.946 64.0615C107.598 61.2901 107.595 58.8126 107.425 55.6846Z" fill="white"/>
</g>
</g>
</g>
</g>
</g>
</g>
</svg>
